<mxfile host="app.diagrams.net" agent="Mozilla/5.0 (Windows NT 10.0; Win64; x64) AppleWebKit/537.36 (KHTML, like Gecko) Chrome/131.0.0.0 Safari/537.36" version="26.0.2">
  <diagram name="페이지-1" id="IkHp8Y_VfOA2l69gQE5q">
    <mxGraphModel dx="2514" dy="2037" grid="1" gridSize="10" guides="1" tooltips="1" connect="1" arrows="1" fold="1" page="1" pageScale="1" pageWidth="827" pageHeight="1169" math="0" shadow="0">
      <root>
        <mxCell id="0" />
        <mxCell id="1" parent="0" />
        <mxCell id="s6_-VDTN1BvuscFlEvzm-3" value="" style="swimlane;startSize=0;" vertex="1" parent="1">
          <mxGeometry x="-640" y="-280" width="1200" height="650" as="geometry" />
        </mxCell>
        <mxCell id="s6_-VDTN1BvuscFlEvzm-1" value="" style="rounded=0;whiteSpace=wrap;html=1;" vertex="1" parent="s6_-VDTN1BvuscFlEvzm-3">
          <mxGeometry x="320" y="150" width="800" height="450" as="geometry" />
        </mxCell>
        <mxCell id="s6_-VDTN1BvuscFlEvzm-2" value="영상 출력부분" style="text;html=1;align=center;verticalAlign=middle;resizable=0;points=[];autosize=1;strokeColor=none;fillColor=none;fontSize=30;" vertex="1" parent="s6_-VDTN1BvuscFlEvzm-3">
          <mxGeometry x="340" y="170" width="210" height="50" as="geometry" />
        </mxCell>
        <mxCell id="s6_-VDTN1BvuscFlEvzm-4" value="" style="rounded=0;whiteSpace=wrap;html=1;" vertex="1" parent="s6_-VDTN1BvuscFlEvzm-3">
          <mxGeometry x="60" y="150" width="200" height="450" as="geometry" />
        </mxCell>
        <mxCell id="s6_-VDTN1BvuscFlEvzm-7" value="1" style="rounded=0;whiteSpace=wrap;html=1;fontSize=18;fontStyle=1" vertex="1" parent="s6_-VDTN1BvuscFlEvzm-3">
          <mxGeometry x="820" y="100" width="80" height="30" as="geometry" />
        </mxCell>
        <mxCell id="s6_-VDTN1BvuscFlEvzm-5" value="3X3" style="rounded=0;whiteSpace=wrap;html=1;fontStyle=1;fontSize=18;" vertex="1" parent="s6_-VDTN1BvuscFlEvzm-3">
          <mxGeometry x="1040" y="100" width="80" height="30" as="geometry" />
        </mxCell>
        <mxCell id="s6_-VDTN1BvuscFlEvzm-6" value="2X2" style="rounded=0;whiteSpace=wrap;html=1;fontSize=18;fontStyle=1" vertex="1" parent="s6_-VDTN1BvuscFlEvzm-3">
          <mxGeometry x="930" y="100" width="80" height="30" as="geometry" />
        </mxCell>
      </root>
    </mxGraphModel>
  </diagram>
</mxfile>
